name D:\school\WTK\thesis\model\3dpredictsim\Results\Batchsim_tmt_linear_v2\Pog_s1_tmt_bCst_d02_k800_ig24_act.mot
datacolumns 128
datarows 4
range 1.99903223 2.03901287
endheader
time	pelvis_tilt	pelvis_list	pelvis_rotation	pelvis_tx	pelvis_ty	pelvis_tz	hip_flexion_l	hip_adduction_l	hip_rotation_l	hip_flexion_r	hip_adduction_r	hip_rotation_r	knee_angle_l	knee_angle_r	ankle_angle_l	ankle_angle_r	subtalar_angle_l	subtalar_angle_r	tmt_angle_l	tmt_angle_r	mtp_angle_l	mtp_angle_r	lumbar_extension	lumbar_bending	lumbar_rotation	arm_flex_l	arm_add_l	arm_rot_l	arm_flex_r	arm_add_r	arm_rot_r	elbow_flex_l	elbow_flex_r	pro_sup_l	pro_sup_r	glut_med1_l/activation	glut_med2_l/activation	glut_med3_l/activation	glut_min1_l/activation	glut_min2_l/activation	glut_min3_l/activation	semimem_l/activation	semiten_l/activation	bifemlh_l/activation	bifemsh_l/activation	sar_l/activation	add_long_l/activation	add_brev_l/activation	add_mag1_l/activation	add_mag2_l/activation	add_mag3_l/activation	tfl_l/activation	pect_l/activation	grac_l/activation	glut_max1_l/activation	glut_max2_l/activation	glut_max3_l/activation	iliacus_l/activation	psoas_l/activation	quad_fem_l/activation	gem_l/activation	peri_l/activation	rect_fem_l/activation	vas_med_l/activation	vas_int_l/activation	vas_lat_l/activation	med_gas_l/activation	lat_gas_l/activation	soleus_l/activation	tib_post_l/activation	flex_dig_l/activation	flex_hal_l/activation	tib_ant_l/activation	per_brev_l/activation	per_long_l/activation	per_tert_l/activation	ext_dig_l/activation	ext_hal_l/activation	ercspn_l/activation	intobl_l/activation	extobl_l/activation	glut_med1_r/activation	glut_med2_r/activation	glut_med3_r/activation	glut_min1_r/activation	glut_min2_r/activation	glut_min3_r/activation	semimem_r/activation	semiten_r/activation	bifemlh_r/activation	bifemsh_r/activation	sar_r/activation	add_long_r/activation	add_brev_r/activation	add_mag1_r/activation	add_mag2_r/activation	add_mag3_r/activation	tfl_r/activation	pect_r/activation	grac_r/activation	glut_max1_r/activation	glut_max2_r/activation	glut_max3_r/activation	iliacus_r/activation	psoas_r/activation	quad_fem_r/activation	gem_r/activation	peri_r/activation	rect_fem_r/activation	vas_med_r/activation	vas_int_r/activation	vas_lat_r/activation	med_gas_r/activation	lat_gas_r/activation	soleus_r/activation	tib_post_r/activation	flex_dig_r/activation	flex_hal_r/activation	tib_ant_r/activation	per_brev_r/activation	per_long_r/activation	per_tert_r/activation	ext_dig_r/activation	ext_hal_r/activation	ercspn_r/activation	intobl_r/activation	extobl_r/activation	
          1.99903223	         -0.78612325	         -1.92099026	         -9.81364061	          2.49879029	          0.85821982	          0.00368922	         28.11757540	         -3.13747233	         -1.18806253	        -17.93965350	         -0.57412430	          1.63941501	         -8.21963869	        -19.36193274	          9.53208088	        -18.22843066	          1.93886012	          4.72166491	          0.04850648	          0.93622743	         -0.05721922	         38.30464997	          1.19866631	          5.29904960	          4.19842564	        -15.97912566	        -13.46887377	         14.75286216	          1.03496389	        -13.63273876	          8.79559226	         20.43182447	         30.34485709	         86.51662706	         86.51662706	          0.16698757	          0.17219945	          0.20443054	          0.06111612	          0.05424076	          0.05000425	          0.06725283	          0.06110679	          0.06396451	          0.06110589	          0.05064835	          0.05515013	          0.08808671	          0.14865157	          0.22001427	          0.17545836	          0.05421122	          0.05007606	          0.08099113	          0.06110634	          0.17067944	          0.21670011	          0.07068317	          0.06889610	          0.06426004	          0.05000192	          0.17897441	          0.05000156	          0.22058924	          0.25163411	          0.18330283	          0.05000008	          0.05000019	          0.05000002	          0.05000070	          0.05680019	          0.05000224	          0.62692571	          0.34661204	          0.20623819	          0.54438492	          0.65226737	          0.49234975	          0.05000012	          0.15422075	          0.11952180	          0.15559298	          0.05000193	          0.05488689	          0.14369299	          0.07493763	          0.05000906	          0.05007627	          0.05315204	          0.06110565	          0.05000628	          0.05866450	          0.27976256	          0.35505134	          0.15800174	          0.07473994	          0.07466324	          0.11152591	          0.09873853	          0.07467943	          0.05007612	          0.05016880	          0.07401482	          0.21296437	          0.43684255	          0.07467794	          0.07467752	          0.06111228	          0.28151270	          0.05000071	          0.05000078	          0.05000053	          0.05000098	          0.06307649	          0.05000028	          0.10461826	          0.08417366	          0.10514184	          0.24152902	          0.29899335	          0.18200376	          0.46859131	          0.59158790	          0.10022050	          0.05000298	          0.05891999	          0.06624932	
          2.01235911	         -0.77257780	         -2.17683489	         -9.78420231	          2.52200411	          0.85637740	          0.00331123	         27.49957399	         -3.13219426	         -1.01520978	        -17.96844949	         -0.71614485	          1.43495422	         -9.50922390	        -21.26326738	          8.44782440	        -20.62776496	          1.72731257	          5.07864761	         -0.05505683	          0.70846016	         -0.12518602	         36.58679020	          1.48527209	          5.14131408	          4.31173178	        -18.26716404	        -13.51127093	         15.11892336	          0.72606268	        -13.71248211	          9.33755532	         20.63524309	         31.34298474	         86.51662706	         86.51662706	          0.23126866	          0.29612016	          0.45433333	          0.05001388	          0.05000399	          0.35109303	          0.06773058	          0.05000115	          0.06937151	          0.05000072	          0.06110243	          0.06110601	          0.07207779	          0.12163520	          0.18002819	          0.17403245	          0.05000125	          0.06110663	          0.06627238	          0.05000113	          0.19363677	          0.21372736	          0.06110573	          0.06024778	          0.05258168	          0.12843239	          0.32389857	          0.05000132	          0.18049838	          0.20590093	          0.14998859	          0.05974310	          0.06110549	          0.06110545	          0.05000170	          0.06110550	          0.06110570	          0.60437320	          0.32228338	          0.16879305	          0.44544550	          0.68284489	          0.48531305	          0.05000059	          0.12619173	          0.09779919	          0.15224908	          0.06110318	          0.06110506	          0.11757813	          0.06131872	          0.05000835	          0.05000503	          0.05000118	          0.05000300	          0.05000058	          0.05006466	          0.25583888	          0.29052321	          0.12928749	          0.06115854	          0.06109719	          0.09125711	          0.08081559	          0.06110762	          0.05005513	          0.05002989	          0.06056900	          0.17425924	          0.40132807	          0.06110591	          0.06110578	          0.05000564	          0.23034896	          0.09121830	          0.07806840	          0.06800954	          0.05000034	          0.05161303	          0.05000019	          0.08560433	          0.06887603	          0.08603292	          0.24529430	          0.25560077	          0.15767306	          0.57723791	          0.75211259	          0.37332897	          0.07991597	          0.05000097	          0.05420895	
          2.02568599	         -0.75489260	         -2.40597432	         -9.69946866	          2.54482972	          0.85428044	          0.00291882	         26.86175316	         -3.07028685	         -0.82948509	        -17.79578143	         -0.84445031	          1.26820447	        -10.96876043	        -23.52988794	          7.45027239	        -22.23397851	          1.52197313	          5.38977967	         -0.02646753	          0.49143810	         -0.14005256	         32.85385948	          1.73460239	          4.92600315	          4.40496005	        -20.38149483	        -13.55662992	         15.62733485	          0.47554429	        -13.77643291	          9.87761488	         20.64089734	         32.23376088	         86.51662706	         86.51662706	          0.30114584	          0.40834019	          0.49060767	          0.17873872	          0.23304439	          0.28728614	          0.05542118	          0.07102045	          0.05851423	          0.06110276	          0.05000135	          0.05000050	          0.05897810	          0.09952900	          0.17728994	          0.18708569	          0.05000047	          0.05000237	          0.06096066	          0.29109862	          0.26074442	          0.24671311	          0.05000024	          0.05000019	          0.14059260	          0.10509132	          0.26503233	          0.05000011	          0.14769536	          0.23379406	          0.12273119	          0.05000003	          0.05000009	          0.05000001	          0.05000002	          0.05000054	          0.05000037	          0.73708401	          0.36780193	          0.17595377	          0.70634530	          0.80308062	          0.60196471	          0.05259967	          0.10325688	          0.08002458	          0.12457981	          0.05000014	          0.05000007	          0.12915402	          0.05017515	          0.05000059	          0.05865828	          0.05000043	          0.05000098	          0.05000052	          0.05023884	          0.24956147	          0.23772276	          0.10579112	          0.05004515	          0.05000171	          0.07467266	          0.06613054	          0.05000227	          0.05000194	          0.05000135	          0.05000113	          0.14258872	          0.39655767	          0.05000029	          0.05000073	          0.05000036	          0.18848445	          0.07468034	          0.09424192	          0.07468337	          0.05000201	          0.05000368	          0.05000048	          0.07004616	          0.05635886	          0.07039718	          0.30477397	          0.23500852	          0.14871792	          0.53730453	          0.83400238	          0.30547796	          0.12043548	          0.05000002	          0.05000012	
          2.03901287	         -0.73491716	         -2.59503587	         -9.55237101	          2.56686756	          0.85243706	          0.00246707	         26.44371682	         -2.96732034	         -0.67571355	        -17.37791362	         -0.96711610	          1.14261325	        -12.65317869	        -26.09150919	          6.19850854	        -23.24630233	          1.31804293	          5.70185389	         -0.03712934	          0.26353663	         -0.23943976	         27.28804003	          1.92593460	          4.64991420	          4.47940353	        -22.22382295	        -13.58466199	         16.25158269	          0.36233098	        -13.80412801	         10.46405598	         20.40561179	         32.90981719	         86.51662706	         86.51662706	          0.36857699	          0.51362901	          0.61023831	          0.17984444	          0.37417038	          0.42616292	          0.05000034	          0.05811328	          0.05000087	          0.05000043	          0.05000086	          0.05000061	          0.05000253	          0.08144065	          0.14506933	          0.16538784	          0.09670480	          0.05000344	          0.05000447	          0.33458412	          0.29259739	          0.23565258	          0.05000023	          0.05000028	          0.11504112	          0.08599281	          0.30261422	          0.05000068	          0.40646818	          0.44329189	          0.34450488	          0.05000011	          0.05000031	          0.05000004	          0.13710561	          0.05000748	          0.05000634	          0.86077737	          0.30095537	          0.14397487	          0.57796986	          0.65712391	          0.55267345	          0.07111976	          0.08449035	          0.06548045	          0.10193807	          0.07467763	          0.06153394	          0.10568111	          0.05000131	          0.05000164	          0.07272038	          0.05000050	          0.05000369	          0.05000010	          0.05000055	          0.22930218	          0.28139282	          0.26916703	          0.10935782	          0.09897454	          0.06110162	          0.05411299	          0.05000077	          0.06111960	          0.07467630	          0.09124430	          0.11667384	          0.33772488	          0.05000508	          0.05002263	          0.05000214	          0.15422817	          0.06110765	          0.07711398	          0.06111007	          0.05000143	          0.05000310	          0.06110568	          0.06110561	          0.06107164	          0.06110576	          0.34743912	          0.19229696	          0.12733439	          0.43965185	          0.91209825	          0.29343143	          0.14192423	          0.05000045	          0.05000017	
